<svg width="181" height="140" viewBox="0 0 181 140" fill="none" xmlns="http://www.w3.org/2000/svg">
<g filter="url(#filter0_i_66_22)">
<path d="M39.2891 121V54.5547H39.9219L87.3828 121H104.961V19.5391H84.6406V85.6328H84.0781L36.6875 19.5391H18.9688V121H39.2891Z" fill="#F67833"/>
</g>
<g filter="url(#filter1_d_66_22)">
<path d="M89.6484 92.1016C90.2812 111.156 105.82 122.758 130.219 122.758C155.391 122.758 171.352 110.312 171.352 90.625C171.352 75.1562 162.492 66.4375 142.172 62.0781L129.867 59.4766C118.195 56.8047 113.273 53.2891 113.273 47.0312C113.273 39.5078 120.305 34.5156 130.781 34.5156C141.398 34.5156 148.922 39.7188 149.625 48.2969H169.523C169.172 29.9453 154.336 17.7812 130.711 17.7812C108.07 17.7812 91.8984 30.1562 91.8984 48.8594C91.8984 63.6953 101.109 73.1875 119.812 77.1953L133.031 80.0781C145.266 82.8203 150.117 86.4766 150.117 93.0859C150.117 100.539 142.383 105.953 131.062 105.953C119.812 105.953 111.094 100.469 110.109 92.1016H89.6484Z" fill="black"/>
<path d="M89.6484 92.1016V91.1016H88.6147L88.649 92.1348L89.6484 92.1016ZM142.172 62.0781L142.382 61.1004L142.379 61.0998L142.172 62.0781ZM129.867 59.4766L129.644 60.4513L129.652 60.4532L129.66 60.4549L129.867 59.4766ZM149.625 48.2969L148.628 48.3786L148.704 49.2969H149.625V48.2969ZM169.523 48.2969V49.2969H170.543L170.523 48.2777L169.523 48.2969ZM119.812 77.1953L120.026 76.2183L120.022 76.2175L119.812 77.1953ZM133.031 80.0781L133.25 79.1023L133.244 79.1011L133.031 80.0781ZM110.109 92.1016L111.103 91.9847L110.999 91.1016H110.109V92.1016ZM88.649 92.1348C88.9751 101.955 93.1571 109.904 100.42 115.374C107.656 120.824 117.873 123.758 130.219 123.758V121.758C118.166 121.758 108.414 118.891 101.623 113.776C94.8585 108.682 90.9546 101.303 90.6479 92.0684L88.649 92.1348ZM130.219 123.758C142.957 123.758 153.479 120.61 160.84 114.862C168.227 109.095 172.352 100.767 172.352 90.625H170.352C170.352 100.17 166.496 107.909 159.609 113.286C152.697 118.683 142.652 121.758 130.219 121.758V123.758ZM172.352 90.625C172.352 82.6808 170.067 76.3551 165.082 71.4712C160.132 66.6227 152.624 63.2978 142.382 61.1004L141.962 63.0559C152.04 65.2178 159.121 68.432 163.682 72.8999C168.207 77.3324 170.352 83.1004 170.352 90.625H172.352ZM142.379 61.0998L130.074 58.4982L129.66 60.4549L141.965 63.0565L142.379 61.0998ZM130.09 58.5018C124.286 57.1732 120.306 55.6627 117.789 53.7955C115.343 51.981 114.273 49.8304 114.273 47.0312H112.273C112.273 50.4899 113.665 53.226 116.598 55.4018C119.459 57.5248 123.776 59.1081 129.644 60.4513L130.09 58.5018ZM114.273 47.0312C114.273 43.6206 115.851 40.7838 118.679 38.7662C121.533 36.7305 125.689 35.5156 130.781 35.5156V33.5156C125.397 33.5156 120.799 34.7969 117.518 37.1381C114.211 39.4974 112.273 42.9184 112.273 47.0312H114.273ZM130.781 35.5156C135.936 35.5156 140.251 36.7795 143.337 39.001C146.402 41.2079 148.301 44.3898 148.628 48.3786L150.622 48.2152C150.245 43.6258 148.032 39.9171 144.505 37.3779C140.999 34.8533 136.244 33.5156 130.781 33.5156V35.5156ZM149.625 49.2969H169.523V47.2969H149.625V49.2969ZM170.523 48.2777C170.342 38.8134 166.414 30.901 159.467 25.3747C152.54 19.864 142.686 16.7812 130.711 16.7812V18.7812C142.361 18.7812 151.737 21.7806 158.222 26.9398C164.688 32.0834 168.353 39.4288 168.524 48.316L170.523 48.2777ZM130.711 16.7812C119.217 16.7812 109.28 19.9221 102.194 25.5221C95.0899 31.1366 90.8984 39.1912 90.8984 48.8594H92.8984C92.8984 39.8244 96.7929 32.34 103.434 27.0912C110.095 21.8279 119.564 18.7812 130.711 18.7812V16.7812ZM90.8984 48.8594C90.8984 56.5029 93.2799 62.8484 98.1281 67.7883C102.953 72.7051 110.139 76.1451 119.603 78.1731L120.022 76.2175C110.783 74.2377 104.011 70.9277 99.5555 66.3874C95.1224 61.8704 92.8984 56.0518 92.8984 48.8594H90.8984ZM119.599 78.1723L132.818 81.0552L133.244 79.1011L120.026 76.2183L119.599 78.1723ZM132.813 81.0539C138.898 82.4178 142.993 83.9804 145.557 85.9281C148.046 87.8185 149.117 90.0879 149.117 93.0859H151.117C151.117 89.4746 149.763 86.6112 146.767 84.3355C143.847 82.1173 139.399 80.4807 133.25 79.1023L132.813 81.0539ZM149.117 93.0859C149.117 96.4247 147.398 99.3548 144.271 101.488C141.128 103.633 136.575 104.953 131.062 104.953V106.953C136.87 106.953 141.844 105.566 145.399 103.14C148.969 100.704 151.117 97.2003 151.117 93.0859H149.117ZM131.062 104.953C120.032 104.953 111.999 99.6069 111.103 91.9847L109.116 92.2184C110.188 101.331 119.593 106.953 131.062 106.953V104.953ZM110.109 91.1016H89.6484V93.1016H110.109V91.1016Z" fill="black"/>
</g>
<defs>
<filter id="filter0_i_66_22" x="18.9688" y="19.5391" width="85.9922" height="105.461" filterUnits="userSpaceOnUse" color-interpolation-filters="sRGB">
<feFlood flood-opacity="0" result="BackgroundImageFix"/>
<feBlend mode="normal" in="SourceGraphic" in2="BackgroundImageFix" result="shape"/>
<feColorMatrix in="SourceAlpha" type="matrix" values="0 0 0 0 0 0 0 0 0 0 0 0 0 0 0 0 0 0 127 0" result="hardAlpha"/>
<feOffset dy="10"/>
<feGaussianBlur stdDeviation="2"/>
<feComposite in2="hardAlpha" operator="arithmetic" k2="-1" k3="1"/>
<feColorMatrix type="matrix" values="0 0 0 0 0 0 0 0 0 0 0 0 0 0 0 0 0 0 0.25 0"/>
<feBlend mode="normal" in2="shape" result="effect1_innerShadow_66_22"/>
</filter>
<filter id="filter1_d_66_22" x="85.6484" y="17.7812" width="89.7031" height="118.977" filterUnits="userSpaceOnUse" color-interpolation-filters="sRGB">
<feFlood flood-opacity="0" result="BackgroundImageFix"/>
<feColorMatrix in="SourceAlpha" type="matrix" values="0 0 0 0 0 0 0 0 0 0 0 0 0 0 0 0 0 0 127 0" result="hardAlpha"/>
<feOffset dy="10"/>
<feGaussianBlur stdDeviation="2"/>
<feComposite in2="hardAlpha" operator="out"/>
<feColorMatrix type="matrix" values="0 0 0 0 0 0 0 0 0 0 0 0 0 0 0 0 0 0 0.25 0"/>
<feBlend mode="normal" in2="BackgroundImageFix" result="effect1_dropShadow_66_22"/>
<feBlend mode="normal" in="SourceGraphic" in2="effect1_dropShadow_66_22" result="shape"/>
</filter>
</defs>
</svg>
