<svg width="1139" height="523" viewBox="0 0 1139 523" fill="none" xmlns="http://www.w3.org/2000/svg">
<path d="M35 15.5C35 24.0604 27.165 31 17.5 31C7.83502 31 0 24.0604 0 15.5C0 6.93959 7.83502 0 17.5 0C27.165 0 35 6.93959 35 15.5Z" fill="#DB7D64"/>
<path d="M35 56.5C35 65.0604 27.165 72 17.5 72C7.83502 72 0 65.0604 0 56.5C0 47.9396 7.83502 41 17.5 41C27.165 41 35 47.9396 35 56.5Z" fill="#DB7D64"/>
<path d="M35 138.5C35 147.06 27.165 154 17.5 154C7.83502 154 0 147.06 0 138.5C0 129.94 7.83502 123 17.5 123C27.165 123 35 129.94 35 138.5Z" fill="#DB7D64"/>
<path d="M35 220.5C35 229.06 27.165 236 17.5 236C7.83502 236 0 229.06 0 220.5C0 211.94 7.83502 205 17.5 205C27.165 205 35 211.94 35 220.5Z" fill="#DB7D64"/>
<path d="M35 302.5C35 311.06 27.165 318 17.5 318C7.83502 318 0 311.06 0 302.5C0 293.94 7.83502 287 17.5 287C27.165 287 35 293.94 35 302.5Z" fill="#DB7D64"/>
<path d="M35 384.5C35 393.06 27.165 400 17.5 400C7.83502 400 0 393.06 0 384.5C0 375.94 7.83502 369 17.5 369C27.165 369 35 375.94 35 384.5Z" fill="#DB7D64"/>
<path d="M35 466.5C35 475.06 27.165 482 17.5 482C7.83502 482 0 475.06 0 466.5C0 457.94 7.83502 451 17.5 451C27.165 451 35 457.94 35 466.5Z" fill="#DB7D64"/>
<path d="M35 97.5C35 106.06 27.165 113 17.5 113C7.83502 113 0 106.06 0 97.5C0 88.9396 7.83502 82 17.5 82C27.165 82 35 88.9396 35 97.5Z" fill="#DB7D64"/>
<path d="M35 179.5C35 188.06 27.165 195 17.5 195C7.83502 195 0 188.06 0 179.5C0 170.94 7.83502 164 17.5 164C27.165 164 35 170.94 35 179.5Z" fill="#DB7D64"/>
<path d="M35 261.5C35 270.06 27.165 277 17.5 277C7.83502 277 0 270.06 0 261.5C0 252.94 7.83502 246 17.5 246C27.165 246 35 252.94 35 261.5Z" fill="#DB7D64"/>
<path d="M35 343.5C35 352.06 27.165 359 17.5 359C7.83502 359 0 352.06 0 343.5C0 334.94 7.83502 328 17.5 328C27.165 328 35 334.94 35 343.5Z" fill="#DB7D64"/>
<path d="M35 425.5C35 434.06 27.165 441 17.5 441C7.83502 441 0 434.06 0 425.5C0 416.94 7.83502 410 17.5 410C27.165 410 35 416.94 35 425.5Z" fill="#DB7D64"/>
<path d="M35 507.5C35 516.06 27.165 523 17.5 523C7.83502 523 0 516.06 0 507.5C0 498.94 7.83502 492 17.5 492C27.165 492 35 498.94 35 507.5Z" fill="#DB7D64"/>
<path d="M265 15.5C265 24.0604 257.165 31 247.5 31C237.835 31 230 24.0604 230 15.5C230 6.93959 237.835 0 247.5 0C257.165 0 265 6.93959 265 15.5Z" fill="#DB7D64"/>
<path d="M265 56.5C265 65.0604 257.165 72 247.5 72C237.835 72 230 65.0604 230 56.5C230 47.9396 237.835 41 247.5 41C257.165 41 265 47.9396 265 56.5Z" fill="#DB7D64"/>
<path d="M265 138.5C265 147.06 257.165 154 247.5 154C237.835 154 230 147.06 230 138.5C230 129.94 237.835 123 247.5 123C257.165 123 265 129.94 265 138.5Z" fill="#DB7D64"/>
<path d="M265 220.5C265 229.06 257.165 236 247.5 236C237.835 236 230 229.06 230 220.5C230 211.94 237.835 205 247.5 205C257.165 205 265 211.94 265 220.5Z" fill="#DB7D64"/>
<path d="M265 302.5C265 311.06 257.165 318 247.5 318C237.835 318 230 311.06 230 302.5C230 293.94 237.835 287 247.5 287C257.165 287 265 293.94 265 302.5Z" fill="#DB7D64"/>
<path d="M265 384.5C265 393.06 257.165 400 247.5 400C237.835 400 230 393.06 230 384.5C230 375.94 237.835 369 247.5 369C257.165 369 265 375.94 265 384.5Z" fill="#DB7D64"/>
<path d="M265 466.5C265 475.06 257.165 482 247.5 482C237.835 482 230 475.06 230 466.5C230 457.94 237.835 451 247.5 451C257.165 451 265 457.94 265 466.5Z" fill="#DB7D64"/>
<path d="M265 97.5C265 106.06 257.165 113 247.5 113C237.835 113 230 106.06 230 97.5C230 88.9396 237.835 82 247.5 82C257.165 82 265 88.9396 265 97.5Z" fill="#DB7D64"/>
<path d="M265 179.5C265 188.06 257.165 195 247.5 195C237.835 195 230 188.06 230 179.5C230 170.94 237.835 164 247.5 164C257.165 164 265 170.94 265 179.5Z" fill="#DB7D64"/>
<path d="M265 261.5C265 270.06 257.165 277 247.5 277C237.835 277 230 270.06 230 261.5C230 252.94 237.835 246 247.5 246C257.165 246 265 252.94 265 261.5Z" fill="#DB7D64"/>
<path d="M265 343.5C265 352.06 257.165 359 247.5 359C237.835 359 230 352.06 230 343.5C230 334.94 237.835 328 247.5 328C257.165 328 265 334.94 265 343.5Z" fill="#DB7D64"/>
<path d="M265 425.5C265 434.06 257.165 441 247.5 441C237.835 441 230 434.06 230 425.5C230 416.94 237.835 410 247.5 410C257.165 410 265 416.94 265 425.5Z" fill="#DB7D64"/>
<path d="M265 507.5C265 516.06 257.165 523 247.5 523C237.835 523 230 516.06 230 507.5C230 498.94 237.835 492 247.5 492C257.165 492 265 498.94 265 507.5Z" fill="#DB7D64"/>
<path d="M495 15.5C495 24.0604 487.165 31 477.5 31C467.835 31 460 24.0604 460 15.5C460 6.93959 467.835 0 477.5 0C487.165 0 495 6.93959 495 15.5Z" fill="#DB7D64"/>
<path d="M495 56.5C495 65.0604 487.165 72 477.5 72C467.835 72 460 65.0604 460 56.5C460 47.9396 467.835 41 477.5 41C487.165 41 495 47.9396 495 56.5Z" fill="#DB7D64"/>
<path d="M495 138.5C495 147.06 487.165 154 477.5 154C467.835 154 460 147.06 460 138.5C460 129.94 467.835 123 477.5 123C487.165 123 495 129.94 495 138.5Z" fill="#DB7D64"/>
<path d="M495 220.5C495 229.06 487.165 236 477.5 236C467.835 236 460 229.06 460 220.5C460 211.94 467.835 205 477.5 205C487.165 205 495 211.94 495 220.5Z" fill="#DB7D64"/>
<path d="M495 302.5C495 311.06 487.165 318 477.5 318C467.835 318 460 311.06 460 302.5C460 293.94 467.835 287 477.5 287C487.165 287 495 293.94 495 302.5Z" fill="#DB7D64"/>
<path d="M495 384.5C495 393.06 487.165 400 477.5 400C467.835 400 460 393.06 460 384.5C460 375.94 467.835 369 477.5 369C487.165 369 495 375.94 495 384.5Z" fill="#DB7D64"/>
<path d="M495 466.5C495 475.06 487.165 482 477.5 482C467.835 482 460 475.06 460 466.5C460 457.94 467.835 451 477.5 451C487.165 451 495 457.94 495 466.5Z" fill="#DB7D64"/>
<path d="M495 97.5C495 106.06 487.165 113 477.5 113C467.835 113 460 106.06 460 97.5C460 88.9396 467.835 82 477.5 82C487.165 82 495 88.9396 495 97.5Z" fill="#DB7D64"/>
<path d="M495 179.5C495 188.06 487.165 195 477.5 195C467.835 195 460 188.06 460 179.5C460 170.94 467.835 164 477.5 164C487.165 164 495 170.94 495 179.5Z" fill="#DB7D64"/>
<path d="M495 261.5C495 270.06 487.165 277 477.5 277C467.835 277 460 270.06 460 261.5C460 252.94 467.835 246 477.5 246C487.165 246 495 252.94 495 261.5Z" fill="#DB7D64"/>
<path d="M495 343.5C495 352.06 487.165 359 477.5 359C467.835 359 460 352.06 460 343.5C460 334.94 467.835 328 477.5 328C487.165 328 495 334.94 495 343.5Z" fill="#DB7D64"/>
<path d="M495 425.5C495 434.06 487.165 441 477.5 441C467.835 441 460 434.06 460 425.5C460 416.94 467.835 410 477.5 410C487.165 410 495 416.94 495 425.5Z" fill="#DB7D64"/>
<path d="M495 507.5C495 516.06 487.165 523 477.5 523C467.835 523 460 516.06 460 507.5C460 498.94 467.835 492 477.5 492C487.165 492 495 498.94 495 507.5Z" fill="#DB7D64"/>
<path d="M725 15.5C725 24.0604 717.165 31 707.5 31C697.835 31 690 24.0604 690 15.5C690 6.93959 697.835 0 707.5 0C717.165 0 725 6.93959 725 15.5Z" fill="#DB7D64"/>
<path d="M725 56.5C725 65.0604 717.165 72 707.5 72C697.835 72 690 65.0604 690 56.5C690 47.9396 697.835 41 707.5 41C717.165 41 725 47.9396 725 56.5Z" fill="#DB7D64"/>
<path d="M725 138.5C725 147.06 717.165 154 707.5 154C697.835 154 690 147.06 690 138.5C690 129.94 697.835 123 707.5 123C717.165 123 725 129.94 725 138.5Z" fill="#DB7D64"/>
<path d="M725 384.5C725 393.06 717.165 400 707.5 400C697.835 400 690 393.06 690 384.5C690 375.94 697.835 369 707.5 369C717.165 369 725 375.94 725 384.5Z" fill="#DB7D64"/>
<path d="M725 466.5C725 475.06 717.165 482 707.5 482C697.835 482 690 475.06 690 466.5C690 457.94 697.835 451 707.5 451C717.165 451 725 457.94 725 466.5Z" fill="#DB7D64"/>
<path d="M725 97.5C725 106.06 717.165 113 707.5 113C697.835 113 690 106.06 690 97.5C690 88.9396 697.835 82 707.5 82C717.165 82 725 88.9396 725 97.5Z" fill="#DB7D64"/>
<path d="M725 179.5C725 188.06 717.165 195 707.5 195C697.835 195 690 188.06 690 179.5C690 170.94 697.835 164 707.5 164C717.165 164 725 170.94 725 179.5Z" fill="#DB7D64"/>
<path d="M725 343.5C725 352.06 717.165 359 707.5 359C697.835 359 690 352.06 690 343.5C690 334.94 697.835 328 707.5 328C717.165 328 725 334.94 725 343.5Z" fill="#DB7D64"/>
<path d="M725 425.5C725 434.06 717.165 441 707.5 441C697.835 441 690 434.06 690 425.5C690 416.94 697.835 410 707.5 410C717.165 410 725 416.94 725 425.5Z" fill="#DB7D64"/>
<path d="M725 507.5C725 516.06 717.165 523 707.5 523C697.835 523 690 516.06 690 507.5C690 498.94 697.835 492 707.5 492C717.165 492 725 498.94 725 507.5Z" fill="#DB7D64"/>
<path d="M955 15.5C955 24.0604 947.165 31 937.5 31C927.835 31 920 24.0604 920 15.5C920 6.93959 927.835 0 937.5 0C947.165 0 955 6.93959 955 15.5Z" fill="#DB7D64"/>
<path d="M955 56.5C955 65.0604 947.165 72 937.5 72C927.835 72 920 65.0604 920 56.5C920 47.9396 927.835 41 937.5 41C947.165 41 955 47.9396 955 56.5Z" fill="#DB7D64"/>
<path d="M955 138.5C955 147.06 947.165 154 937.5 154C927.835 154 920 147.06 920 138.5C920 129.94 927.835 123 937.5 123C947.165 123 955 129.94 955 138.5Z" fill="#DB7D64"/>
<path d="M955 384.5C955 393.06 947.165 400 937.5 400C927.835 400 920 393.06 920 384.5C920 375.94 927.835 369 937.5 369C947.165 369 955 375.94 955 384.5Z" fill="#DB7D64"/>
<path d="M955 466.5C955 475.06 947.165 482 937.5 482C927.835 482 920 475.06 920 466.5C920 457.94 927.835 451 937.5 451C947.165 451 955 457.94 955 466.5Z" fill="#DB7D64"/>
<path d="M955 97.5C955 106.06 947.165 113 937.5 113C927.835 113 920 106.06 920 97.5C920 88.9396 927.835 82 937.5 82C947.165 82 955 88.9396 955 97.5Z" fill="#DB7D64"/>
<path d="M955 179.5C955 188.06 947.165 195 937.5 195C927.835 195 920 188.06 920 179.5C920 170.94 927.835 164 937.5 164C947.165 164 955 170.94 955 179.5Z" fill="#DB7D64"/>
<path d="M955 343.5C955 352.06 947.165 359 937.5 359C927.835 359 920 352.06 920 343.5C920 334.94 927.835 328 937.5 328C947.165 328 955 334.94 955 343.5Z" fill="#DB7D64"/>
<path d="M955 425.5C955 434.06 947.165 441 937.5 441C927.835 441 920 434.06 920 425.5C920 416.94 927.835 410 937.5 410C947.165 410 955 416.94 955 425.5Z" fill="#DB7D64"/>
<path d="M955 507.5C955 516.06 947.165 523 937.5 523C927.835 523 920 516.06 920 507.5C920 498.94 927.835 492 937.5 492C947.165 492 955 498.94 955 507.5Z" fill="#DB7D64"/>
<path d="M81 15.5C81 24.0604 73.165 31 63.5 31C53.835 31 46 24.0604 46 15.5C46 6.93959 53.835 0 63.5 0C73.165 0 81 6.93959 81 15.5Z" fill="#DB7D64"/>
<path d="M81 56.5C81 65.0604 73.165 72 63.5 72C53.835 72 46 65.0604 46 56.5C46 47.9396 53.835 41 63.5 41C73.165 41 81 47.9396 81 56.5Z" fill="#DB7D64"/>
<path d="M81 138.5C81 147.06 73.165 154 63.5 154C53.835 154 46 147.06 46 138.5C46 129.94 53.835 123 63.5 123C73.165 123 81 129.94 81 138.5Z" fill="#DB7D64"/>
<path d="M81 220.5C81 229.06 73.165 236 63.5 236C53.835 236 46 229.06 46 220.5C46 211.94 53.835 205 63.5 205C73.165 205 81 211.94 81 220.5Z" fill="#DB7D64"/>
<path d="M81 302.5C81 311.06 73.165 318 63.5 318C53.835 318 46 311.06 46 302.5C46 293.94 53.835 287 63.5 287C73.165 287 81 293.94 81 302.5Z" fill="#DB7D64"/>
<path d="M81 384.5C81 393.06 73.165 400 63.5 400C53.835 400 46 393.06 46 384.5C46 375.94 53.835 369 63.5 369C73.165 369 81 375.94 81 384.5Z" fill="#DB7D64"/>
<path d="M81 466.5C81 475.06 73.165 482 63.5 482C53.835 482 46 475.06 46 466.5C46 457.94 53.835 451 63.5 451C73.165 451 81 457.94 81 466.5Z" fill="#DB7D64"/>
<path d="M81 97.5C81 106.06 73.165 113 63.5 113C53.835 113 46 106.06 46 97.5C46 88.9396 53.835 82 63.5 82C73.165 82 81 88.9396 81 97.5Z" fill="#DB7D64"/>
<path d="M81 179.5C81 188.06 73.165 195 63.5 195C53.835 195 46 188.06 46 179.5C46 170.94 53.835 164 63.5 164C73.165 164 81 170.94 81 179.5Z" fill="#DB7D64"/>
<path d="M81 261.5C81 270.06 73.165 277 63.5 277C53.835 277 46 270.06 46 261.5C46 252.94 53.835 246 63.5 246C73.165 246 81 252.94 81 261.5Z" fill="#DB7D64"/>
<path d="M81 343.5C81 352.06 73.165 359 63.5 359C53.835 359 46 352.06 46 343.5C46 334.94 53.835 328 63.5 328C73.165 328 81 334.94 81 343.5Z" fill="#DB7D64"/>
<path d="M81 425.5C81 434.06 73.165 441 63.5 441C53.835 441 46 434.06 46 425.5C46 416.94 53.835 410 63.5 410C73.165 410 81 416.94 81 425.5Z" fill="#DB7D64"/>
<path d="M81 507.5C81 516.06 73.165 523 63.5 523C53.835 523 46 516.06 46 507.5C46 498.94 53.835 492 63.5 492C73.165 492 81 498.94 81 507.5Z" fill="#DB7D64"/>
<path d="M311 15.5C311 24.0604 303.165 31 293.5 31C283.835 31 276 24.0604 276 15.5C276 6.93959 283.835 0 293.5 0C303.165 0 311 6.93959 311 15.5Z" fill="#DB7D64"/>
<path d="M311 56.5C311 65.0604 303.165 72 293.5 72C283.835 72 276 65.0604 276 56.5C276 47.9396 283.835 41 293.5 41C303.165 41 311 47.9396 311 56.5Z" fill="#DB7D64"/>
<path d="M311 138.5C311 147.06 303.165 154 293.5 154C283.835 154 276 147.06 276 138.5C276 129.94 283.835 123 293.5 123C303.165 123 311 129.94 311 138.5Z" fill="#DB7D64"/>
<path d="M311 220.5C311 229.06 303.165 236 293.5 236C283.835 236 276 229.06 276 220.5C276 211.94 283.835 205 293.5 205C303.165 205 311 211.94 311 220.5Z" fill="#DB7D64"/>
<path d="M311 302.5C311 311.06 303.165 318 293.5 318C283.835 318 276 311.06 276 302.5C276 293.94 283.835 287 293.5 287C303.165 287 311 293.94 311 302.5Z" fill="#DB7D64"/>
<path d="M311 384.5C311 393.06 303.165 400 293.5 400C283.835 400 276 393.06 276 384.5C276 375.94 283.835 369 293.5 369C303.165 369 311 375.94 311 384.5Z" fill="#DB7D64"/>
<path d="M311 466.5C311 475.06 303.165 482 293.5 482C283.835 482 276 475.06 276 466.5C276 457.94 283.835 451 293.5 451C303.165 451 311 457.94 311 466.5Z" fill="#DB7D64"/>
<path d="M311 97.5C311 106.06 303.165 113 293.5 113C283.835 113 276 106.06 276 97.5C276 88.9396 283.835 82 293.5 82C303.165 82 311 88.9396 311 97.5Z" fill="#DB7D64"/>
<path d="M311 179.5C311 188.06 303.165 195 293.5 195C283.835 195 276 188.06 276 179.5C276 170.94 283.835 164 293.5 164C303.165 164 311 170.94 311 179.5Z" fill="#DB7D64"/>
<path d="M311 261.5C311 270.06 303.165 277 293.5 277C283.835 277 276 270.06 276 261.5C276 252.94 283.835 246 293.5 246C303.165 246 311 252.94 311 261.5Z" fill="#DB7D64"/>
<path d="M311 343.5C311 352.06 303.165 359 293.5 359C283.835 359 276 352.06 276 343.5C276 334.94 283.835 328 293.5 328C303.165 328 311 334.94 311 343.5Z" fill="#DB7D64"/>
<path d="M311 425.5C311 434.06 303.165 441 293.5 441C283.835 441 276 434.06 276 425.5C276 416.94 283.835 410 293.5 410C303.165 410 311 416.94 311 425.5Z" fill="#DB7D64"/>
<path d="M311 507.5C311 516.06 303.165 523 293.5 523C283.835 523 276 516.06 276 507.5C276 498.94 283.835 492 293.5 492C303.165 492 311 498.94 311 507.5Z" fill="#DB7D64"/>
<path d="M541 15.5C541 24.0604 533.165 31 523.5 31C513.835 31 506 24.0604 506 15.5C506 6.93959 513.835 0 523.5 0C533.165 0 541 6.93959 541 15.5Z" fill="#DB7D64"/>
<path d="M541 56.5C541 65.0604 533.165 72 523.5 72C513.835 72 506 65.0604 506 56.5C506 47.9396 513.835 41 523.5 41C533.165 41 541 47.9396 541 56.5Z" fill="#DB7D64"/>
<path d="M541 138.5C541 147.06 533.165 154 523.5 154C513.835 154 506 147.06 506 138.5C506 129.94 513.835 123 523.5 123C533.165 123 541 129.94 541 138.5Z" fill="#DB7D64"/>
<path d="M541 220.5C541 229.06 533.165 236 523.5 236C513.835 236 506 229.06 506 220.5C506 211.94 513.835 205 523.5 205C533.165 205 541 211.94 541 220.5Z" fill="#DB7D64"/>
<path d="M541 302.5C541 311.06 533.165 318 523.5 318C513.835 318 506 311.06 506 302.5C506 293.94 513.835 287 523.5 287C533.165 287 541 293.94 541 302.5Z" fill="#DB7D64"/>
<path d="M541 384.5C541 393.06 533.165 400 523.5 400C513.835 400 506 393.06 506 384.5C506 375.94 513.835 369 523.5 369C533.165 369 541 375.94 541 384.5Z" fill="#DB7D64"/>
<path d="M541 466.5C541 475.06 533.165 482 523.5 482C513.835 482 506 475.06 506 466.5C506 457.94 513.835 451 523.5 451C533.165 451 541 457.94 541 466.5Z" fill="#DB7D64"/>
<path d="M541 97.5C541 106.06 533.165 113 523.5 113C513.835 113 506 106.06 506 97.5C506 88.9396 513.835 82 523.5 82C533.165 82 541 88.9396 541 97.5Z" fill="#DB7D64"/>
<path d="M541 179.5C541 188.06 533.165 195 523.5 195C513.835 195 506 188.06 506 179.5C506 170.94 513.835 164 523.5 164C533.165 164 541 170.94 541 179.5Z" fill="#DB7D64"/>
<path d="M541 261.5C541 270.06 533.165 277 523.5 277C513.835 277 506 270.06 506 261.5C506 252.94 513.835 246 523.5 246C533.165 246 541 252.94 541 261.5Z" fill="#DB7D64"/>
<path d="M541 343.5C541 352.06 533.165 359 523.5 359C513.835 359 506 352.06 506 343.5C506 334.94 513.835 328 523.5 328C533.165 328 541 334.94 541 343.5Z" fill="#DB7D64"/>
<path d="M541 425.5C541 434.06 533.165 441 523.5 441C513.835 441 506 434.06 506 425.5C506 416.94 513.835 410 523.5 410C533.165 410 541 416.94 541 425.5Z" fill="#DB7D64"/>
<path d="M541 507.5C541 516.06 533.165 523 523.5 523C513.835 523 506 516.06 506 507.5C506 498.94 513.835 492 523.5 492C533.165 492 541 498.94 541 507.5Z" fill="#DB7D64"/>
<path d="M771 15.5C771 24.0604 763.165 31 753.5 31C743.835 31 736 24.0604 736 15.5C736 6.93959 743.835 0 753.5 0C763.165 0 771 6.93959 771 15.5Z" fill="#DB7D64"/>
<path d="M771 56.5C771 65.0604 763.165 72 753.5 72C743.835 72 736 65.0604 736 56.5C736 47.9396 743.835 41 753.5 41C763.165 41 771 47.9396 771 56.5Z" fill="#DB7D64"/>
<path d="M771 138.5C771 147.06 763.165 154 753.5 154C743.835 154 736 147.06 736 138.5C736 129.94 743.835 123 753.5 123C763.165 123 771 129.94 771 138.5Z" fill="#DB7D64"/>
<path d="M771 384.5C771 393.06 763.165 400 753.5 400C743.835 400 736 393.06 736 384.5C736 375.94 743.835 369 753.5 369C763.165 369 771 375.94 771 384.5Z" fill="#DB7D64"/>
<path d="M771 466.5C771 475.06 763.165 482 753.5 482C743.835 482 736 475.06 736 466.5C736 457.94 743.835 451 753.5 451C763.165 451 771 457.94 771 466.5Z" fill="#DB7D64"/>
<path d="M771 97.5C771 106.06 763.165 113 753.5 113C743.835 113 736 106.06 736 97.5C736 88.9396 743.835 82 753.5 82C763.165 82 771 88.9396 771 97.5Z" fill="#DB7D64"/>
<path d="M771 179.5C771 188.06 763.165 195 753.5 195C743.835 195 736 188.06 736 179.5C736 170.94 743.835 164 753.5 164C763.165 164 771 170.94 771 179.5Z" fill="#DB7D64"/>
<path d="M771 343.5C771 352.06 763.165 359 753.5 359C743.835 359 736 352.06 736 343.5C736 334.94 743.835 328 753.5 328C763.165 328 771 334.94 771 343.5Z" fill="#DB7D64"/>
<path d="M771 425.5C771 434.06 763.165 441 753.5 441C743.835 441 736 434.06 736 425.5C736 416.94 743.835 410 753.5 410C763.165 410 771 416.94 771 425.5Z" fill="#DB7D64"/>
<path d="M771 507.5C771 516.06 763.165 523 753.5 523C743.835 523 736 516.06 736 507.5C736 498.94 743.835 492 753.5 492C763.165 492 771 498.94 771 507.5Z" fill="#DB7D64"/>
<path d="M1001 15.5C1001 24.0604 993.165 31 983.5 31C973.835 31 966 24.0604 966 15.5C966 6.93959 973.835 0 983.5 0C993.165 0 1001 6.93959 1001 15.5Z" fill="#DB7D64"/>
<path d="M1001 56.5C1001 65.0604 993.165 72 983.5 72C973.835 72 966 65.0604 966 56.5C966 47.9396 973.835 41 983.5 41C993.165 41 1001 47.9396 1001 56.5Z" fill="#DB7D64"/>
<path d="M1001 138.5C1001 147.06 993.165 154 983.5 154C973.835 154 966 147.06 966 138.5C966 129.94 973.835 123 983.5 123C993.165 123 1001 129.94 1001 138.5Z" fill="#DB7D64"/>
<path d="M1001 384.5C1001 393.06 993.165 400 983.5 400C973.835 400 966 393.06 966 384.5C966 375.94 973.835 369 983.5 369C993.165 369 1001 375.94 1001 384.5Z" fill="#DB7D64"/>
<path d="M1001 466.5C1001 475.06 993.165 482 983.5 482C973.835 482 966 475.06 966 466.5C966 457.94 973.835 451 983.5 451C993.165 451 1001 457.94 1001 466.5Z" fill="#DB7D64"/>
<path d="M1001 97.5C1001 106.06 993.165 113 983.5 113C973.835 113 966 106.06 966 97.5C966 88.9396 973.835 82 983.5 82C993.165 82 1001 88.9396 1001 97.5Z" fill="#DB7D64"/>
<path d="M1001 179.5C1001 188.06 993.165 195 983.5 195C973.835 195 966 188.06 966 179.5C966 170.94 973.835 164 983.5 164C993.165 164 1001 170.94 1001 179.5Z" fill="#DB7D64"/>
<path d="M1001 343.5C1001 352.06 993.165 359 983.5 359C973.835 359 966 352.06 966 343.5C966 334.94 973.835 328 983.5 328C993.165 328 1001 334.94 1001 343.5Z" fill="#DB7D64"/>
<path d="M1001 425.5C1001 434.06 993.165 441 983.5 441C973.835 441 966 434.06 966 425.5C966 416.94 973.835 410 983.5 410C993.165 410 1001 416.94 1001 425.5Z" fill="#DB7D64"/>
<path d="M1001 507.5C1001 516.06 993.165 523 983.5 523C973.835 523 966 516.06 966 507.5C966 498.94 973.835 492 983.5 492C993.165 492 1001 498.94 1001 507.5Z" fill="#DB7D64"/>
<path d="M127 15.5C127 24.0604 119.165 31 109.5 31C99.835 31 92 24.0604 92 15.5C92 6.93959 99.835 0 109.5 0C119.165 0 127 6.93959 127 15.5Z" fill="#DB7D64"/>
<path d="M127 56.5C127 65.0604 119.165 72 109.5 72C99.835 72 92 65.0604 92 56.5C92 47.9396 99.835 41 109.5 41C119.165 41 127 47.9396 127 56.5Z" fill="#DB7D64"/>
<path d="M127 138.5C127 147.06 119.165 154 109.5 154C99.835 154 92 147.06 92 138.5C92 129.94 99.835 123 109.5 123C119.165 123 127 129.94 127 138.5Z" fill="#DB7D64"/>
<path d="M127 220.5C127 229.06 119.165 236 109.5 236C99.835 236 92 229.06 92 220.5C92 211.94 99.835 205 109.5 205C119.165 205 127 211.94 127 220.5Z" fill="#DB7D64"/>
<path d="M127 302.5C127 311.06 119.165 318 109.5 318C99.835 318 92 311.06 92 302.5C92 293.94 99.835 287 109.5 287C119.165 287 127 293.94 127 302.5Z" fill="#DB7D64"/>
<path d="M127 384.5C127 393.06 119.165 400 109.5 400C99.835 400 92 393.06 92 384.5C92 375.94 99.835 369 109.5 369C119.165 369 127 375.94 127 384.5Z" fill="#DB7D64"/>
<path d="M127 466.5C127 475.06 119.165 482 109.5 482C99.835 482 92 475.06 92 466.5C92 457.94 99.835 451 109.5 451C119.165 451 127 457.94 127 466.5Z" fill="#DB7D64"/>
<path d="M127 97.5C127 106.06 119.165 113 109.5 113C99.835 113 92 106.06 92 97.5C92 88.9396 99.835 82 109.5 82C119.165 82 127 88.9396 127 97.5Z" fill="#DB7D64"/>
<path d="M127 179.5C127 188.06 119.165 195 109.5 195C99.835 195 92 188.06 92 179.5C92 170.94 99.835 164 109.5 164C119.165 164 127 170.94 127 179.5Z" fill="#DB7D64"/>
<path d="M127 261.5C127 270.06 119.165 277 109.5 277C99.835 277 92 270.06 92 261.5C92 252.94 99.835 246 109.5 246C119.165 246 127 252.94 127 261.5Z" fill="#DB7D64"/>
<path d="M127 343.5C127 352.06 119.165 359 109.5 359C99.835 359 92 352.06 92 343.5C92 334.94 99.835 328 109.5 328C119.165 328 127 334.94 127 343.5Z" fill="#DB7D64"/>
<path d="M127 425.5C127 434.06 119.165 441 109.5 441C99.835 441 92 434.06 92 425.5C92 416.94 99.835 410 109.5 410C119.165 410 127 416.94 127 425.5Z" fill="#DB7D64"/>
<path d="M127 507.5C127 516.06 119.165 523 109.5 523C99.835 523 92 516.06 92 507.5C92 498.94 99.835 492 109.5 492C119.165 492 127 498.94 127 507.5Z" fill="#DB7D64"/>
<path d="M357 15.5C357 24.0604 349.165 31 339.5 31C329.835 31 322 24.0604 322 15.5C322 6.93959 329.835 0 339.5 0C349.165 0 357 6.93959 357 15.5Z" fill="#DB7D64"/>
<path d="M357 56.5C357 65.0604 349.165 72 339.5 72C329.835 72 322 65.0604 322 56.5C322 47.9396 329.835 41 339.5 41C349.165 41 357 47.9396 357 56.5Z" fill="#DB7D64"/>
<path d="M357 138.5C357 147.06 349.165 154 339.5 154C329.835 154 322 147.06 322 138.5C322 129.94 329.835 123 339.5 123C349.165 123 357 129.94 357 138.5Z" fill="#DB7D64"/>
<path d="M357 220.5C357 229.06 349.165 236 339.5 236C329.835 236 322 229.06 322 220.5C322 211.94 329.835 205 339.5 205C349.165 205 357 211.94 357 220.5Z" fill="#DB7D64"/>
<path d="M357 302.5C357 311.06 349.165 318 339.5 318C329.835 318 322 311.06 322 302.5C322 293.94 329.835 287 339.5 287C349.165 287 357 293.94 357 302.5Z" fill="#DB7D64"/>
<path d="M357 384.5C357 393.06 349.165 400 339.5 400C329.835 400 322 393.06 322 384.5C322 375.94 329.835 369 339.5 369C349.165 369 357 375.94 357 384.5Z" fill="#DB7D64"/>
<path d="M357 466.5C357 475.06 349.165 482 339.5 482C329.835 482 322 475.06 322 466.5C322 457.94 329.835 451 339.5 451C349.165 451 357 457.94 357 466.5Z" fill="#DB7D64"/>
<path d="M357 97.5C357 106.06 349.165 113 339.5 113C329.835 113 322 106.06 322 97.5C322 88.9396 329.835 82 339.5 82C349.165 82 357 88.9396 357 97.5Z" fill="#DB7D64"/>
<path d="M357 179.5C357 188.06 349.165 195 339.5 195C329.835 195 322 188.06 322 179.5C322 170.94 329.835 164 339.5 164C349.165 164 357 170.94 357 179.5Z" fill="#DB7D64"/>
<path d="M357 261.5C357 270.06 349.165 277 339.5 277C329.835 277 322 270.06 322 261.5C322 252.94 329.835 246 339.5 246C349.165 246 357 252.94 357 261.5Z" fill="#DB7D64"/>
<path d="M357 343.5C357 352.06 349.165 359 339.5 359C329.835 359 322 352.06 322 343.5C322 334.94 329.835 328 339.5 328C349.165 328 357 334.94 357 343.5Z" fill="#DB7D64"/>
<path d="M357 425.5C357 434.06 349.165 441 339.5 441C329.835 441 322 434.06 322 425.5C322 416.94 329.835 410 339.5 410C349.165 410 357 416.94 357 425.5Z" fill="#DB7D64"/>
<path d="M357 507.5C357 516.06 349.165 523 339.5 523C329.835 523 322 516.06 322 507.5C322 498.94 329.835 492 339.5 492C349.165 492 357 498.94 357 507.5Z" fill="#DB7D64"/>
<path d="M587 15.5C587 24.0604 579.165 31 569.5 31C559.835 31 552 24.0604 552 15.5C552 6.93959 559.835 0 569.5 0C579.165 0 587 6.93959 587 15.5Z" fill="#DB7D64"/>
<path d="M587 56.5C587 65.0604 579.165 72 569.5 72C559.835 72 552 65.0604 552 56.5C552 47.9396 559.835 41 569.5 41C579.165 41 587 47.9396 587 56.5Z" fill="#DB7D64"/>
<path d="M587 138.5C587 147.06 579.165 154 569.5 154C559.835 154 552 147.06 552 138.5C552 129.94 559.835 123 569.5 123C579.165 123 587 129.94 587 138.5Z" fill="#DB7D64"/>
<path d="M587 220.5C587 229.06 579.165 236 569.5 236C559.835 236 552 229.06 552 220.5C552 211.94 559.835 205 569.5 205C579.165 205 587 211.94 587 220.5Z" fill="#DB7D64"/>
<path d="M587 302.5C587 311.06 579.165 318 569.5 318C559.835 318 552 311.06 552 302.5C552 293.94 559.835 287 569.5 287C579.165 287 587 293.94 587 302.5Z" fill="#DB7D64"/>
<path d="M587 384.5C587 393.06 579.165 400 569.5 400C559.835 400 552 393.06 552 384.5C552 375.94 559.835 369 569.5 369C579.165 369 587 375.94 587 384.5Z" fill="#DB7D64"/>
<path d="M587 466.5C587 475.06 579.165 482 569.5 482C559.835 482 552 475.06 552 466.5C552 457.94 559.835 451 569.5 451C579.165 451 587 457.94 587 466.5Z" fill="#DB7D64"/>
<path d="M587 97.5C587 106.06 579.165 113 569.5 113C559.835 113 552 106.06 552 97.5C552 88.9396 559.835 82 569.5 82C579.165 82 587 88.9396 587 97.5Z" fill="#DB7D64"/>
<path d="M587 179.5C587 188.06 579.165 195 569.5 195C559.835 195 552 188.06 552 179.5C552 170.94 559.835 164 569.5 164C579.165 164 587 170.94 587 179.5Z" fill="#DB7D64"/>
<path d="M587 261.5C587 270.06 579.165 277 569.5 277C559.835 277 552 270.06 552 261.5C552 252.94 559.835 246 569.5 246C579.165 246 587 252.94 587 261.5Z" fill="#DB7D64"/>
<path d="M587 343.5C587 352.06 579.165 359 569.5 359C559.835 359 552 352.06 552 343.5C552 334.94 559.835 328 569.5 328C579.165 328 587 334.94 587 343.5Z" fill="#DB7D64"/>
<path d="M587 425.5C587 434.06 579.165 441 569.5 441C559.835 441 552 434.06 552 425.5C552 416.94 559.835 410 569.5 410C579.165 410 587 416.94 587 425.5Z" fill="#DB7D64"/>
<path d="M587 507.5C587 516.06 579.165 523 569.5 523C559.835 523 552 516.06 552 507.5C552 498.94 559.835 492 569.5 492C579.165 492 587 498.94 587 507.5Z" fill="#DB7D64"/>
<path d="M817 15.5C817 24.0604 809.165 31 799.5 31C789.835 31 782 24.0604 782 15.5C782 6.93959 789.835 0 799.5 0C809.165 0 817 6.93959 817 15.5Z" fill="#DB7D64"/>
<path d="M817 56.5C817 65.0604 809.165 72 799.5 72C789.835 72 782 65.0604 782 56.5C782 47.9396 789.835 41 799.5 41C809.165 41 817 47.9396 817 56.5Z" fill="#DB7D64"/>
<path d="M817 138.5C817 147.06 809.165 154 799.5 154C789.835 154 782 147.06 782 138.5C782 129.94 789.835 123 799.5 123C809.165 123 817 129.94 817 138.5Z" fill="#DB7D64"/>
<path d="M817 384.5C817 393.06 809.165 400 799.5 400C789.835 400 782 393.06 782 384.5C782 375.94 789.835 369 799.5 369C809.165 369 817 375.94 817 384.5Z" fill="#DB7D64"/>
<path d="M817 466.5C817 475.06 809.165 482 799.5 482C789.835 482 782 475.06 782 466.5C782 457.94 789.835 451 799.5 451C809.165 451 817 457.94 817 466.5Z" fill="#DB7D64"/>
<path d="M817 97.5C817 106.06 809.165 113 799.5 113C789.835 113 782 106.06 782 97.5C782 88.9396 789.835 82 799.5 82C809.165 82 817 88.9396 817 97.5Z" fill="#DB7D64"/>
<path d="M817 179.5C817 188.06 809.165 195 799.5 195C789.835 195 782 188.06 782 179.5C782 170.94 789.835 164 799.5 164C809.165 164 817 170.94 817 179.5Z" fill="#DB7D64"/>
<path d="M817 343.5C817 352.06 809.165 359 799.5 359C789.835 359 782 352.06 782 343.5C782 334.94 789.835 328 799.5 328C809.165 328 817 334.94 817 343.5Z" fill="#DB7D64"/>
<path d="M817 425.5C817 434.06 809.165 441 799.5 441C789.835 441 782 434.06 782 425.5C782 416.94 789.835 410 799.5 410C809.165 410 817 416.94 817 425.5Z" fill="#DB7D64"/>
<path d="M817 507.5C817 516.06 809.165 523 799.5 523C789.835 523 782 516.06 782 507.5C782 498.94 789.835 492 799.5 492C809.165 492 817 498.94 817 507.5Z" fill="#DB7D64"/>
<path d="M1047 15.5C1047 24.0604 1039.16 31 1029.5 31C1019.84 31 1012 24.0604 1012 15.5C1012 6.93959 1019.84 0 1029.5 0C1039.16 0 1047 6.93959 1047 15.5Z" fill="#DB7D64"/>
<path d="M1047 56.5C1047 65.0604 1039.16 72 1029.5 72C1019.84 72 1012 65.0604 1012 56.5C1012 47.9396 1019.84 41 1029.5 41C1039.16 41 1047 47.9396 1047 56.5Z" fill="#DB7D64"/>
<path d="M1047 138.5C1047 147.06 1039.16 154 1029.5 154C1019.84 154 1012 147.06 1012 138.5C1012 129.94 1019.84 123 1029.5 123C1039.16 123 1047 129.94 1047 138.5Z" fill="#DB7D64"/>
<path d="M1047 384.5C1047 393.06 1039.16 400 1029.5 400C1019.84 400 1012 393.06 1012 384.5C1012 375.94 1019.84 369 1029.5 369C1039.16 369 1047 375.94 1047 384.5Z" fill="#DB7D64"/>
<path d="M1047 466.5C1047 475.06 1039.16 482 1029.5 482C1019.84 482 1012 475.06 1012 466.5C1012 457.94 1019.84 451 1029.5 451C1039.16 451 1047 457.94 1047 466.5Z" fill="#DB7D64"/>
<path d="M1047 97.5C1047 106.06 1039.16 113 1029.5 113C1019.84 113 1012 106.06 1012 97.5C1012 88.9396 1019.84 82 1029.5 82C1039.16 82 1047 88.9396 1047 97.5Z" fill="#DB7D64"/>
<path d="M1047 179.5C1047 188.06 1039.16 195 1029.5 195C1019.84 195 1012 188.06 1012 179.5C1012 170.94 1019.84 164 1029.5 164C1039.16 164 1047 170.94 1047 179.5Z" fill="#DB7D64"/>
<path d="M1047 343.5C1047 352.06 1039.16 359 1029.5 359C1019.84 359 1012 352.06 1012 343.5C1012 334.94 1019.84 328 1029.5 328C1039.16 328 1047 334.94 1047 343.5Z" fill="#DB7D64"/>
<path d="M1047 425.5C1047 434.06 1039.16 441 1029.5 441C1019.84 441 1012 434.06 1012 425.5C1012 416.94 1019.84 410 1029.5 410C1039.16 410 1047 416.94 1047 425.5Z" fill="#DB7D64"/>
<path d="M1047 507.5C1047 516.06 1039.16 523 1029.5 523C1019.84 523 1012 516.06 1012 507.5C1012 498.94 1019.84 492 1029.5 492C1039.16 492 1047 498.94 1047 507.5Z" fill="#DB7D64"/>
<path d="M173 15.5C173 24.0604 165.165 31 155.5 31C145.835 31 138 24.0604 138 15.5C138 6.93959 145.835 0 155.5 0C165.165 0 173 6.93959 173 15.5Z" fill="#DB7D64"/>
<path d="M173 56.5C173 65.0604 165.165 72 155.5 72C145.835 72 138 65.0604 138 56.5C138 47.9396 145.835 41 155.5 41C165.165 41 173 47.9396 173 56.5Z" fill="#DB7D64"/>
<path d="M173 138.5C173 147.06 165.165 154 155.5 154C145.835 154 138 147.06 138 138.5C138 129.94 145.835 123 155.5 123C165.165 123 173 129.94 173 138.5Z" fill="#DB7D64"/>
<path d="M173 220.5C173 229.06 165.165 236 155.5 236C145.835 236 138 229.06 138 220.5C138 211.94 145.835 205 155.5 205C165.165 205 173 211.94 173 220.5Z" fill="#DB7D64"/>
<path d="M173 302.5C173 311.06 165.165 318 155.5 318C145.835 318 138 311.06 138 302.5C138 293.94 145.835 287 155.5 287C165.165 287 173 293.94 173 302.5Z" fill="#DB7D64"/>
<path d="M173 384.5C173 393.06 165.165 400 155.5 400C145.835 400 138 393.06 138 384.5C138 375.94 145.835 369 155.5 369C165.165 369 173 375.94 173 384.5Z" fill="#DB7D64"/>
<path d="M173 466.5C173 475.06 165.165 482 155.5 482C145.835 482 138 475.06 138 466.5C138 457.94 145.835 451 155.5 451C165.165 451 173 457.94 173 466.5Z" fill="#DB7D64"/>
<path d="M173 97.5C173 106.06 165.165 113 155.5 113C145.835 113 138 106.06 138 97.5C138 88.9396 145.835 82 155.5 82C165.165 82 173 88.9396 173 97.5Z" fill="#DB7D64"/>
<path d="M173 179.5C173 188.06 165.165 195 155.5 195C145.835 195 138 188.06 138 179.5C138 170.94 145.835 164 155.5 164C165.165 164 173 170.94 173 179.5Z" fill="#DB7D64"/>
<path d="M173 261.5C173 270.06 165.165 277 155.5 277C145.835 277 138 270.06 138 261.5C138 252.94 145.835 246 155.5 246C165.165 246 173 252.94 173 261.5Z" fill="#DB7D64"/>
<path d="M173 343.5C173 352.06 165.165 359 155.5 359C145.835 359 138 352.06 138 343.5C138 334.94 145.835 328 155.5 328C165.165 328 173 334.94 173 343.5Z" fill="#DB7D64"/>
<path d="M173 425.5C173 434.06 165.165 441 155.5 441C145.835 441 138 434.06 138 425.5C138 416.94 145.835 410 155.5 410C165.165 410 173 416.94 173 425.5Z" fill="#DB7D64"/>
<path d="M173 507.5C173 516.06 165.165 523 155.5 523C145.835 523 138 516.06 138 507.5C138 498.94 145.835 492 155.5 492C165.165 492 173 498.94 173 507.5Z" fill="#DB7D64"/>
<path d="M403 15.5C403 24.0604 395.165 31 385.5 31C375.835 31 368 24.0604 368 15.5C368 6.93959 375.835 0 385.5 0C395.165 0 403 6.93959 403 15.5Z" fill="#DB7D64"/>
<path d="M403 56.5C403 65.0604 395.165 72 385.5 72C375.835 72 368 65.0604 368 56.5C368 47.9396 375.835 41 385.5 41C395.165 41 403 47.9396 403 56.5Z" fill="#DB7D64"/>
<path d="M403 138.5C403 147.06 395.165 154 385.5 154C375.835 154 368 147.06 368 138.5C368 129.94 375.835 123 385.5 123C395.165 123 403 129.94 403 138.5Z" fill="#DB7D64"/>
<path d="M403 220.5C403 229.06 395.165 236 385.5 236C375.835 236 368 229.06 368 220.5C368 211.94 375.835 205 385.5 205C395.165 205 403 211.94 403 220.5Z" fill="#DB7D64"/>
<path d="M403 302.5C403 311.06 395.165 318 385.5 318C375.835 318 368 311.06 368 302.5C368 293.94 375.835 287 385.5 287C395.165 287 403 293.94 403 302.5Z" fill="#DB7D64"/>
<path d="M403 384.5C403 393.06 395.165 400 385.5 400C375.835 400 368 393.06 368 384.5C368 375.94 375.835 369 385.5 369C395.165 369 403 375.94 403 384.5Z" fill="#DB7D64"/>
<path d="M403 466.5C403 475.06 395.165 482 385.5 482C375.835 482 368 475.06 368 466.5C368 457.94 375.835 451 385.5 451C395.165 451 403 457.94 403 466.5Z" fill="#DB7D64"/>
<path d="M403 97.5C403 106.06 395.165 113 385.5 113C375.835 113 368 106.06 368 97.5C368 88.9396 375.835 82 385.5 82C395.165 82 403 88.9396 403 97.5Z" fill="#DB7D64"/>
<path d="M403 179.5C403 188.06 395.165 195 385.5 195C375.835 195 368 188.06 368 179.5C368 170.94 375.835 164 385.5 164C395.165 164 403 170.94 403 179.5Z" fill="#DB7D64"/>
<path d="M403 261.5C403 270.06 395.165 277 385.5 277C375.835 277 368 270.06 368 261.5C368 252.94 375.835 246 385.5 246C395.165 246 403 252.94 403 261.5Z" fill="#DB7D64"/>
<path d="M403 343.5C403 352.06 395.165 359 385.5 359C375.835 359 368 352.06 368 343.5C368 334.94 375.835 328 385.5 328C395.165 328 403 334.94 403 343.5Z" fill="#DB7D64"/>
<path d="M403 425.5C403 434.06 395.165 441 385.5 441C375.835 441 368 434.06 368 425.5C368 416.94 375.835 410 385.5 410C395.165 410 403 416.94 403 425.5Z" fill="#DB7D64"/>
<path d="M403 507.5C403 516.06 395.165 523 385.5 523C375.835 523 368 516.06 368 507.5C368 498.94 375.835 492 385.5 492C395.165 492 403 498.94 403 507.5Z" fill="#DB7D64"/>
<path d="M633 15.5C633 24.0604 625.165 31 615.5 31C605.835 31 598 24.0604 598 15.5C598 6.93959 605.835 0 615.5 0C625.165 0 633 6.93959 633 15.5Z" fill="#DB7D64"/>
<path d="M633 56.5C633 65.0604 625.165 72 615.5 72C605.835 72 598 65.0604 598 56.5C598 47.9396 605.835 41 615.5 41C625.165 41 633 47.9396 633 56.5Z" fill="#DB7D64"/>
<path d="M633 138.5C633 147.06 625.165 154 615.5 154C605.835 154 598 147.06 598 138.5C598 129.94 605.835 123 615.5 123C625.165 123 633 129.94 633 138.5Z" fill="#DB7D64"/>
<path d="M633 220.5C633 229.06 625.165 236 615.5 236C605.835 236 598 229.06 598 220.5C598 211.94 605.835 205 615.5 205C625.165 205 633 211.94 633 220.5Z" fill="#DB7D64"/>
<path d="M633 302.5C633 311.06 625.165 318 615.5 318C605.835 318 598 311.06 598 302.5C598 293.94 605.835 287 615.5 287C625.165 287 633 293.94 633 302.5Z" fill="#DB7D64"/>
<path d="M633 384.5C633 393.06 625.165 400 615.5 400C605.835 400 598 393.06 598 384.5C598 375.94 605.835 369 615.5 369C625.165 369 633 375.94 633 384.5Z" fill="#DB7D64"/>
<path d="M633 466.5C633 475.06 625.165 482 615.5 482C605.835 482 598 475.06 598 466.5C598 457.94 605.835 451 615.5 451C625.165 451 633 457.94 633 466.5Z" fill="#DB7D64"/>
<path d="M633 97.5C633 106.06 625.165 113 615.5 113C605.835 113 598 106.06 598 97.5C598 88.9396 605.835 82 615.5 82C625.165 82 633 88.9396 633 97.5Z" fill="#DB7D64"/>
<path d="M633 179.5C633 188.06 625.165 195 615.5 195C605.835 195 598 188.06 598 179.5C598 170.94 605.835 164 615.5 164C625.165 164 633 170.94 633 179.5Z" fill="#DB7D64"/>
<path d="M633 261.5C633 270.06 625.165 277 615.5 277C605.835 277 598 270.06 598 261.5C598 252.94 605.835 246 615.5 246C625.165 246 633 252.94 633 261.5Z" fill="#DB7D64"/>
<path d="M633 343.5C633 352.06 625.165 359 615.5 359C605.835 359 598 352.06 598 343.5C598 334.94 605.835 328 615.5 328C625.165 328 633 334.94 633 343.5Z" fill="#DB7D64"/>
<path d="M633 425.5C633 434.06 625.165 441 615.5 441C605.835 441 598 434.06 598 425.5C598 416.94 605.835 410 615.5 410C625.165 410 633 416.94 633 425.5Z" fill="#DB7D64"/>
<path d="M633 507.5C633 516.06 625.165 523 615.5 523C605.835 523 598 516.06 598 507.5C598 498.94 605.835 492 615.5 492C625.165 492 633 498.94 633 507.5Z" fill="#DB7D64"/>
<path d="M863 15.5C863 24.0604 855.165 31 845.5 31C835.835 31 828 24.0604 828 15.5C828 6.93959 835.835 0 845.5 0C855.165 0 863 6.93959 863 15.5Z" fill="#DB7D64"/>
<path d="M863 56.5C863 65.0604 855.165 72 845.5 72C835.835 72 828 65.0604 828 56.5C828 47.9396 835.835 41 845.5 41C855.165 41 863 47.9396 863 56.5Z" fill="#DB7D64"/>
<path d="M863 138.5C863 147.06 855.165 154 845.5 154C835.835 154 828 147.06 828 138.5C828 129.94 835.835 123 845.5 123C855.165 123 863 129.94 863 138.5Z" fill="#DB7D64"/>
<path d="M863 384.5C863 393.06 855.165 400 845.5 400C835.835 400 828 393.06 828 384.5C828 375.94 835.835 369 845.5 369C855.165 369 863 375.94 863 384.5Z" fill="#DB7D64"/>
<path d="M863 466.5C863 475.06 855.165 482 845.5 482C835.835 482 828 475.06 828 466.5C828 457.94 835.835 451 845.5 451C855.165 451 863 457.94 863 466.5Z" fill="#DB7D64"/>
<path d="M863 97.5C863 106.06 855.165 113 845.5 113C835.835 113 828 106.06 828 97.5C828 88.9396 835.835 82 845.5 82C855.165 82 863 88.9396 863 97.5Z" fill="#DB7D64"/>
<path d="M863 179.5C863 188.06 855.165 195 845.5 195C835.835 195 828 188.06 828 179.5C828 170.94 835.835 164 845.5 164C855.165 164 863 170.94 863 179.5Z" fill="#DB7D64"/>
<path d="M863 343.5C863 352.06 855.165 359 845.5 359C835.835 359 828 352.06 828 343.5C828 334.94 835.835 328 845.5 328C855.165 328 863 334.94 863 343.5Z" fill="#DB7D64"/>
<path d="M863 425.5C863 434.06 855.165 441 845.5 441C835.835 441 828 434.06 828 425.5C828 416.94 835.835 410 845.5 410C855.165 410 863 416.94 863 425.5Z" fill="#DB7D64"/>
<path d="M863 507.5C863 516.06 855.165 523 845.5 523C835.835 523 828 516.06 828 507.5C828 498.94 835.835 492 845.5 492C855.165 492 863 498.94 863 507.5Z" fill="#DB7D64"/>
<path d="M1093 15.5C1093 24.0604 1085.16 31 1075.5 31C1065.84 31 1058 24.0604 1058 15.5C1058 6.93959 1065.84 0 1075.5 0C1085.16 0 1093 6.93959 1093 15.5Z" fill="#DB7D64"/>
<path d="M1093 56.5C1093 65.0604 1085.16 72 1075.5 72C1065.84 72 1058 65.0604 1058 56.5C1058 47.9396 1065.84 41 1075.5 41C1085.16 41 1093 47.9396 1093 56.5Z" fill="#DB7D64"/>
<path d="M1093 138.5C1093 147.06 1085.16 154 1075.5 154C1065.84 154 1058 147.06 1058 138.5C1058 129.94 1065.84 123 1075.5 123C1085.16 123 1093 129.94 1093 138.5Z" fill="#DB7D64"/>
<path d="M1093 384.5C1093 393.06 1085.16 400 1075.5 400C1065.84 400 1058 393.06 1058 384.5C1058 375.94 1065.84 369 1075.5 369C1085.16 369 1093 375.94 1093 384.5Z" fill="#DB7D64"/>
<path d="M1093 466.5C1093 475.06 1085.16 482 1075.5 482C1065.84 482 1058 475.06 1058 466.5C1058 457.94 1065.84 451 1075.5 451C1085.16 451 1093 457.94 1093 466.5Z" fill="#DB7D64"/>
<path d="M1093 97.5C1093 106.06 1085.16 113 1075.5 113C1065.84 113 1058 106.06 1058 97.5C1058 88.9396 1065.84 82 1075.5 82C1085.16 82 1093 88.9396 1093 97.5Z" fill="#DB7D64"/>
<path d="M1093 179.5C1093 188.06 1085.16 195 1075.5 195C1065.84 195 1058 188.06 1058 179.5C1058 170.94 1065.84 164 1075.5 164C1085.16 164 1093 170.94 1093 179.5Z" fill="#DB7D64"/>
<path d="M1093 343.5C1093 352.06 1085.16 359 1075.5 359C1065.84 359 1058 352.06 1058 343.5C1058 334.94 1065.84 328 1075.5 328C1085.16 328 1093 334.94 1093 343.5Z" fill="#DB7D64"/>
<path d="M1093 425.5C1093 434.06 1085.16 441 1075.5 441C1065.84 441 1058 434.06 1058 425.5C1058 416.94 1065.84 410 1075.5 410C1085.16 410 1093 416.94 1093 425.5Z" fill="#DB7D64"/>
<path d="M1093 507.5C1093 516.06 1085.16 523 1075.5 523C1065.84 523 1058 516.06 1058 507.5C1058 498.94 1065.84 492 1075.5 492C1085.16 492 1093 498.94 1093 507.5Z" fill="#DB7D64"/>
<path d="M219 15.5C219 24.0604 211.165 31 201.5 31C191.835 31 184 24.0604 184 15.5C184 6.93959 191.835 0 201.5 0C211.165 0 219 6.93959 219 15.5Z" fill="#DB7D64"/>
<path d="M219 56.5C219 65.0604 211.165 72 201.5 72C191.835 72 184 65.0604 184 56.5C184 47.9396 191.835 41 201.5 41C211.165 41 219 47.9396 219 56.5Z" fill="#DB7D64"/>
<path d="M219 138.5C219 147.06 211.165 154 201.5 154C191.835 154 184 147.06 184 138.5C184 129.94 191.835 123 201.5 123C211.165 123 219 129.94 219 138.5Z" fill="#DB7D64"/>
<path d="M219 220.5C219 229.06 211.165 236 201.5 236C191.835 236 184 229.06 184 220.5C184 211.94 191.835 205 201.5 205C211.165 205 219 211.94 219 220.5Z" fill="#DB7D64"/>
<path d="M219 302.5C219 311.06 211.165 318 201.5 318C191.835 318 184 311.06 184 302.5C184 293.94 191.835 287 201.5 287C211.165 287 219 293.94 219 302.5Z" fill="#DB7D64"/>
<path d="M219 384.5C219 393.06 211.165 400 201.5 400C191.835 400 184 393.06 184 384.5C184 375.94 191.835 369 201.5 369C211.165 369 219 375.94 219 384.5Z" fill="#DB7D64"/>
<path d="M219 466.5C219 475.06 211.165 482 201.5 482C191.835 482 184 475.06 184 466.5C184 457.94 191.835 451 201.5 451C211.165 451 219 457.94 219 466.5Z" fill="#DB7D64"/>
<path d="M219 97.5C219 106.06 211.165 113 201.5 113C191.835 113 184 106.06 184 97.5C184 88.9396 191.835 82 201.5 82C211.165 82 219 88.9396 219 97.5Z" fill="#DB7D64"/>
<path d="M219 179.5C219 188.06 211.165 195 201.5 195C191.835 195 184 188.06 184 179.5C184 170.94 191.835 164 201.5 164C211.165 164 219 170.94 219 179.5Z" fill="#DB7D64"/>
<path d="M219 261.5C219 270.06 211.165 277 201.5 277C191.835 277 184 270.06 184 261.5C184 252.94 191.835 246 201.5 246C211.165 246 219 252.94 219 261.5Z" fill="#DB7D64"/>
<path d="M219 343.5C219 352.06 211.165 359 201.5 359C191.835 359 184 352.06 184 343.5C184 334.94 191.835 328 201.5 328C211.165 328 219 334.94 219 343.5Z" fill="#DB7D64"/>
<path d="M219 425.5C219 434.06 211.165 441 201.5 441C191.835 441 184 434.06 184 425.5C184 416.94 191.835 410 201.5 410C211.165 410 219 416.94 219 425.5Z" fill="#DB7D64"/>
<path d="M219 507.5C219 516.06 211.165 523 201.5 523C191.835 523 184 516.06 184 507.5C184 498.94 191.835 492 201.5 492C211.165 492 219 498.94 219 507.5Z" fill="#DB7D64"/>
<path d="M449 15.5C449 24.0604 441.165 31 431.5 31C421.835 31 414 24.0604 414 15.5C414 6.93959 421.835 0 431.5 0C441.165 0 449 6.93959 449 15.5Z" fill="#DB7D64"/>
<path d="M449 56.5C449 65.0604 441.165 72 431.5 72C421.835 72 414 65.0604 414 56.5C414 47.9396 421.835 41 431.5 41C441.165 41 449 47.9396 449 56.5Z" fill="#DB7D64"/>
<path d="M449 138.5C449 147.06 441.165 154 431.5 154C421.835 154 414 147.06 414 138.5C414 129.94 421.835 123 431.5 123C441.165 123 449 129.94 449 138.5Z" fill="#DB7D64"/>
<path d="M449 220.5C449 229.06 441.165 236 431.5 236C421.835 236 414 229.06 414 220.5C414 211.94 421.835 205 431.5 205C441.165 205 449 211.94 449 220.5Z" fill="#DB7D64"/>
<path d="M449 302.5C449 311.06 441.165 318 431.5 318C421.835 318 414 311.06 414 302.5C414 293.94 421.835 287 431.5 287C441.165 287 449 293.94 449 302.5Z" fill="#DB7D64"/>
<path d="M449 384.5C449 393.06 441.165 400 431.5 400C421.835 400 414 393.06 414 384.5C414 375.94 421.835 369 431.5 369C441.165 369 449 375.94 449 384.5Z" fill="#DB7D64"/>
<path d="M449 466.5C449 475.06 441.165 482 431.5 482C421.835 482 414 475.06 414 466.5C414 457.94 421.835 451 431.5 451C441.165 451 449 457.94 449 466.5Z" fill="#DB7D64"/>
<path d="M449 97.5C449 106.06 441.165 113 431.5 113C421.835 113 414 106.06 414 97.5C414 88.9396 421.835 82 431.5 82C441.165 82 449 88.9396 449 97.5Z" fill="#DB7D64"/>
<path d="M449 179.5C449 188.06 441.165 195 431.5 195C421.835 195 414 188.06 414 179.5C414 170.94 421.835 164 431.5 164C441.165 164 449 170.94 449 179.5Z" fill="#DB7D64"/>
<path d="M449 261.5C449 270.06 441.165 277 431.5 277C421.835 277 414 270.06 414 261.5C414 252.94 421.835 246 431.5 246C441.165 246 449 252.94 449 261.5Z" fill="#DB7D64"/>
<path d="M449 343.5C449 352.06 441.165 359 431.5 359C421.835 359 414 352.06 414 343.5C414 334.94 421.835 328 431.5 328C441.165 328 449 334.94 449 343.5Z" fill="#DB7D64"/>
<path d="M449 425.5C449 434.06 441.165 441 431.5 441C421.835 441 414 434.06 414 425.5C414 416.94 421.835 410 431.5 410C441.165 410 449 416.94 449 425.5Z" fill="#DB7D64"/>
<path d="M449 507.5C449 516.06 441.165 523 431.5 523C421.835 523 414 516.06 414 507.5C414 498.94 421.835 492 431.5 492C441.165 492 449 498.94 449 507.5Z" fill="#DB7D64"/>
<path d="M679 15.5C679 24.0604 671.165 31 661.5 31C651.835 31 644 24.0604 644 15.5C644 6.93959 651.835 0 661.5 0C671.165 0 679 6.93959 679 15.5Z" fill="#DB7D64"/>
<path d="M679 56.5C679 65.0604 671.165 72 661.5 72C651.835 72 644 65.0604 644 56.5C644 47.9396 651.835 41 661.5 41C671.165 41 679 47.9396 679 56.5Z" fill="#DB7D64"/>
<path d="M679 138.5C679 147.06 671.165 154 661.5 154C651.835 154 644 147.06 644 138.5C644 129.94 651.835 123 661.5 123C671.165 123 679 129.94 679 138.5Z" fill="#DB7D64"/>
<path d="M679 384.5C679 393.06 671.165 400 661.5 400C651.835 400 644 393.06 644 384.5C644 375.94 651.835 369 661.5 369C671.165 369 679 375.94 679 384.5Z" fill="#DB7D64"/>
<path d="M679 466.5C679 475.06 671.165 482 661.5 482C651.835 482 644 475.06 644 466.5C644 457.94 651.835 451 661.5 451C671.165 451 679 457.94 679 466.5Z" fill="#DB7D64"/>
<path d="M679 97.5C679 106.06 671.165 113 661.5 113C651.835 113 644 106.06 644 97.5C644 88.9396 651.835 82 661.5 82C671.165 82 679 88.9396 679 97.5Z" fill="#DB7D64"/>
<path d="M679 179.5C679 188.06 671.165 195 661.5 195C651.835 195 644 188.06 644 179.5C644 170.94 651.835 164 661.5 164C671.165 164 679 170.94 679 179.5Z" fill="#DB7D64"/>
<path d="M679 343.5C679 352.06 671.165 359 661.5 359C651.835 359 644 352.06 644 343.5C644 334.94 651.835 328 661.5 328C671.165 328 679 334.94 679 343.5Z" fill="#DB7D64"/>
<path d="M679 425.5C679 434.06 671.165 441 661.5 441C651.835 441 644 434.06 644 425.5C644 416.94 651.835 410 661.5 410C671.165 410 679 416.94 679 425.5Z" fill="#DB7D64"/>
<path d="M679 507.5C679 516.06 671.165 523 661.5 523C651.835 523 644 516.06 644 507.5C644 498.94 651.835 492 661.5 492C671.165 492 679 498.94 679 507.5Z" fill="#DB7D64"/>
<path d="M909 15.5C909 24.0604 901.165 31 891.5 31C881.835 31 874 24.0604 874 15.5C874 6.93959 881.835 0 891.5 0C901.165 0 909 6.93959 909 15.5Z" fill="#DB7D64"/>
<path d="M909 56.5C909 65.0604 901.165 72 891.5 72C881.835 72 874 65.0604 874 56.5C874 47.9396 881.835 41 891.5 41C901.165 41 909 47.9396 909 56.5Z" fill="#DB7D64"/>
<path d="M909 138.5C909 147.06 901.165 154 891.5 154C881.835 154 874 147.06 874 138.5C874 129.94 881.835 123 891.5 123C901.165 123 909 129.94 909 138.5Z" fill="#DB7D64"/>
<path d="M909 384.5C909 393.06 901.165 400 891.5 400C881.835 400 874 393.06 874 384.5C874 375.94 881.835 369 891.5 369C901.165 369 909 375.94 909 384.5Z" fill="#DB7D64"/>
<path d="M909 466.5C909 475.06 901.165 482 891.5 482C881.835 482 874 475.06 874 466.5C874 457.94 881.835 451 891.5 451C901.165 451 909 457.94 909 466.5Z" fill="#DB7D64"/>
<path d="M909 97.5C909 106.06 901.165 113 891.5 113C881.835 113 874 106.06 874 97.5C874 88.9396 881.835 82 891.5 82C901.165 82 909 88.9396 909 97.5Z" fill="#DB7D64"/>
<path d="M909 179.5C909 188.06 901.165 195 891.5 195C881.835 195 874 188.06 874 179.5C874 170.94 881.835 164 891.5 164C901.165 164 909 170.94 909 179.5Z" fill="#DB7D64"/>
<path d="M909 343.5C909 352.06 901.165 359 891.5 359C881.835 359 874 352.06 874 343.5C874 334.94 881.835 328 891.5 328C901.165 328 909 334.94 909 343.5Z" fill="#DB7D64"/>
<path d="M909 425.5C909 434.06 901.165 441 891.5 441C881.835 441 874 434.06 874 425.5C874 416.94 881.835 410 891.5 410C901.165 410 909 416.94 909 425.5Z" fill="#DB7D64"/>
<path d="M909 507.5C909 516.06 901.165 523 891.5 523C881.835 523 874 516.06 874 507.5C874 498.94 881.835 492 891.5 492C901.165 492 909 498.94 909 507.5Z" fill="#DB7D64"/>
<path d="M1139 15.5C1139 24.0604 1131.16 31 1121.5 31C1111.84 31 1104 24.0604 1104 15.5C1104 6.93959 1111.84 0 1121.5 0C1131.16 0 1139 6.93959 1139 15.5Z" fill="#DB7D64"/>
<path d="M1139 56.5C1139 65.0604 1131.16 72 1121.5 72C1111.84 72 1104 65.0604 1104 56.5C1104 47.9396 1111.84 41 1121.5 41C1131.16 41 1139 47.9396 1139 56.5Z" fill="#DB7D64"/>
<path d="M1139 138.5C1139 147.06 1131.16 154 1121.5 154C1111.84 154 1104 147.06 1104 138.5C1104 129.94 1111.84 123 1121.5 123C1131.16 123 1139 129.94 1139 138.5Z" fill="#DB7D64"/>
<path d="M1139 384.5C1139 393.06 1131.16 400 1121.5 400C1111.84 400 1104 393.06 1104 384.5C1104 375.94 1111.84 369 1121.5 369C1131.16 369 1139 375.94 1139 384.5Z" fill="#DB7D64"/>
<path d="M1139 466.5C1139 475.06 1131.16 482 1121.5 482C1111.84 482 1104 475.06 1104 466.5C1104 457.94 1111.84 451 1121.5 451C1131.16 451 1139 457.94 1139 466.5Z" fill="#DB7D64"/>
<path d="M1139 97.5C1139 106.06 1131.16 113 1121.5 113C1111.84 113 1104 106.06 1104 97.5C1104 88.9396 1111.84 82 1121.5 82C1131.16 82 1139 88.9396 1139 97.5Z" fill="#DB7D64"/>
<path d="M1139 179.5C1139 188.06 1131.16 195 1121.5 195C1111.84 195 1104 188.06 1104 179.5C1104 170.94 1111.84 164 1121.5 164C1131.16 164 1139 170.94 1139 179.5Z" fill="#DB7D64"/>
<path d="M1139 343.5C1139 352.06 1131.16 359 1121.5 359C1111.84 359 1104 352.06 1104 343.5C1104 334.94 1111.84 328 1121.5 328C1131.16 328 1139 334.94 1139 343.5Z" fill="#DB7D64"/>
<path d="M1139 425.5C1139 434.06 1131.16 441 1121.5 441C1111.84 441 1104 434.06 1104 425.5C1104 416.94 1111.84 410 1121.5 410C1131.16 410 1139 416.94 1139 425.5Z" fill="#DB7D64"/>
<path d="M1139 507.5C1139 516.06 1131.16 523 1121.5 523C1111.84 523 1104 516.06 1104 507.5C1104 498.94 1111.84 492 1121.5 492C1131.16 492 1139 498.94 1139 507.5Z" fill="#DB7D64"/>
</svg>
